<?xml version="1.0" encoding="utf-8"?>
<svg version="1.1" xmlns:xlink="http://www.w3.org/1999/xlink" width="12px" height="12px" viewBox="289 443  12 12" xmlns="http://www.w3.org/2000/svg">
  <path d="M 295 443  C 298.36 443  301 445.64  301 449  C 301 452.36  298.36 455  295 455  C 291.64 455  289 452.36  289 449  C 289 445.64  291.64 443  295 443  Z " fill-rule="nonzero" fill="#ffffff" stroke="none" />
  <path d="M 295 443.5  C 298.08 443.5  300.5 445.92  300.5 449  C 300.5 452.08  298.08 454.5  295 454.5  C 291.92 454.5  289.5 452.08  289.5 449  C 289.5 445.92  291.92 443.5  295 443.5  Z " stroke-width="1" stroke="#797979" fill="none" />
  <path d="M 295 452  C 293.32 452  292 450.68  292 449  C 292 447.32  293.32 446  295 446  C 296.68 446  298 447.32  298 449  C 298 450.68  296.68 452  295 452  " fill-rule="nonzero" fill="#797979" stroke="none" />
</svg>